<svg width="32" height="32" viewBox="0 0 32 32" fill="none" xmlns="http://www.w3.org/2000/svg">
<path d="M13.7143 0V4.57143H4.57143V0H13.7143Z" fill="#121212"/>
<path d="M13.7143 27.4286V32H4.57143V27.4286H13.7143Z" fill="#121212"/>
<path d="M27.4286 27.4286V32H18.2857V27.4286H27.4286Z" fill="#121212"/>
<path d="M13.7143 4.57143H18.2857V9.14286H13.7143V4.57143Z" fill="#121212"/>
<path d="M27.4286 0V4.57143H18.2857V0H27.4286Z" fill="#121212"/>
<path d="M32 13.7143H27.4286V4.57143H32V13.7143Z" fill="#121212"/>
<path d="M32 27.4286H27.4286V18.2857H32V27.4286Z" fill="#121212"/>
<path d="M22.8571 13.7143H27.4286V18.2857H22.8571V13.7143Z" fill="#121212"/>
<path d="M18.2857 27.4286H13.7143V18.2857H18.2857V27.4286Z" fill="#121212"/>
<path d="M4.57143 13.7143H9.14286V18.2857H4.57143V13.7143Z" fill="#121212"/>
<path d="M4.57143 13.7143H0V4.57143H4.57143V13.7143Z" fill="#121212"/>
<path d="M4.57143 27.4286H0V18.2857H4.57143V27.4286Z" fill="#121212"/>
</svg>
